<svg width="9" height="10" viewBox="0 0 9 10" fill="none" xmlns="http://www.w3.org/2000/svg">
<path d="M8.48278 1.62362H7.13212V0.425165C7.13212 0.190361 6.94176 0 6.70695 0H0.425165C0.190361 0 0 0.190361 0 0.425165V7.95121C0 8.18602 0.190361 8.37638 0.425165 8.37638H1.7758V9.57481C1.7758 9.80961 1.96616 9.99997 2.20097 9.99997H8.48278C8.71759 9.99997 8.90795 9.80961 8.90795 9.57481V2.04879C8.90795 1.81398 8.71759 1.62362 8.48278 1.62362ZM0.850331 7.52605V0.850331H6.28176V1.62362H2.201C1.96619 1.62362 1.77583 1.81398 1.77583 2.04879V7.52605H0.850331ZM8.05762 9.14967H2.62616V2.47395H8.05762V9.14967Z" fill="#FFDDFF"/>
</svg>
